<svg width="224" height="51" viewBox="0 0 224 51" fill="none" xmlns="http://www.w3.org/2000/svg">
<path d="M27.4174 10.9481L28.2197 13.8629C28.7668 15.8562 27.1641 17.7834 24.96 17.7834H15.6926C13.4885 17.7834 11.8858 19.7136 12.4329 21.7038L18.0994 42.3178C18.4873 43.7256 19.8516 44.7133 21.408 44.7133H47.467L47.4172 44.5271L40.0664 17.7804L37.0491 6.80248C36.6612 5.3946 35.2969 4.40698 33.7405 4.40698H32.8544C29.1745 4.40998 26.5023 7.625 27.4174 10.9481Z" fill="#F5167A"/>
<path d="M57.4297 44.53H53.6532C52.0968 44.53 50.7325 43.5424 50.3446 42.1345L44.7279 21.7037C44.1808 19.7104 45.7835 17.7832 47.9875 17.7832H51.7641C53.3205 17.7832 54.6848 18.7708 55.0727 20.1787L60.6862 40.6065C61.2397 42.5998 59.6338 44.53 57.4297 44.53Z" fill="#F5167A"/>
<path d="M59.8437 41.9752H56.0672C54.0467 41.9752 52.2871 40.6994 51.7864 38.8743L46.173 18.4465C45.8348 17.2187 46.1181 15.9399 46.9482 14.9433C47.7783 13.9467 49.0338 13.3733 50.3936 13.3733H54.1702C56.1906 13.3733 57.9502 14.6491 58.4509 16.4742L64.0644 36.902C64.4026 38.1298 64.1193 39.4086 63.2892 40.4052C62.4591 41.4049 61.2036 41.9752 59.8437 41.9752ZM50.4016 15.2315C49.6604 15.2315 48.9733 15.5437 48.5231 16.087C48.0698 16.6303 47.9173 17.3298 48.0997 17.9992L53.7132 38.427C53.9883 39.4236 54.9475 40.1201 56.0496 40.1201H59.8262C60.5673 40.1201 61.2545 39.8079 61.7046 39.2645C62.158 38.7212 62.3105 38.0218 62.128 37.3523L56.5146 16.9245C56.2394 15.9279 55.2802 15.2315 54.1781 15.2315H50.4016V15.2315Z" fill="#2A2A7D"/>
<path d="M51.1505 42.1614H23.8154C21.795 42.1614 20.0354 40.8856 19.5347 39.0605L13.8682 18.4466C13.5301 17.2188 13.8134 15.94 14.6435 14.9434C15.4736 13.9467 16.7291 13.3734 18.0889 13.3734H27.3564C28.0975 13.3734 28.7847 13.0612 29.2348 12.5178C29.6882 11.9745 29.8407 11.2751 29.6582 10.6056L28.8559 7.69082C28.3452 5.82966 28.7717 3.89344 30.0296 2.38049C31.2843 0.867544 33.1884 0 35.2475 0H36.1336C38.1541 0 39.9136 1.2758 40.4143 3.10094L51.1505 42.1614ZM18.1001 15.2315C17.3589 15.2315 16.6718 15.5437 16.2216 16.0871C15.7683 16.6304 15.6158 17.3299 15.7982 17.9993L21.4647 38.6132C21.7398 39.6098 22.699 40.3063 23.8011 40.3063H48.5841L38.4844 3.54822C38.2092 2.5516 37.25 1.85516 36.148 1.85516H35.2619C33.8183 1.85516 32.4889 2.46154 31.6077 3.52121C30.7266 4.58087 30.4277 5.93472 30.7858 7.23754L31.5881 10.1524C31.9263 11.3801 31.643 12.6589 30.8129 13.6556C29.9828 14.6522 28.7273 15.2255 27.3675 15.2255H18.1L18.1001 15.2315Z" fill="#2A2A7D"/>
<path d="M128.344 44.1569H124.567C123.011 44.1569 121.647 43.1693 121.259 41.7614L115.642 21.3306C115.095 19.3374 116.698 17.4102 118.902 17.4102H122.678C124.235 17.4102 125.599 18.3978 125.987 19.8057L131.6 40.2335C132.154 42.2267 130.548 44.1569 128.344 44.1569Z" fill="#F5167A"/>
<path d="M130.756 41.6019H126.979C124.959 41.6019 123.199 40.3261 122.699 38.501L117.085 18.0732C116.747 16.8454 117.03 15.5666 117.86 14.57C118.69 13.5734 119.946 13 121.306 13H125.082C127.103 13 128.862 14.2758 129.363 16.1009L134.977 36.5288C135.315 37.7565 135.031 39.0353 134.201 40.032C133.371 41.0316 132.116 41.6019 130.756 41.6019ZM121.314 14.8582C120.573 14.8582 119.885 15.1704 119.435 15.7137C118.982 16.257 118.829 16.9565 119.012 17.6259L124.625 38.0537C124.9 39.0503 125.86 39.7468 126.962 39.7468H130.738C131.479 39.7468 132.167 39.4346 132.617 38.8912C133.07 38.3479 133.223 37.6485 133.04 36.979L127.427 16.5512C127.151 15.5546 126.192 14.8582 125.09 14.8582H121.314Z" fill="#2A2A7D"/>
<path d="M152.605 41.8217C150.729 41.8217 149.201 41.5116 148.019 40.8914C146.837 40.2713 145.903 39.5837 145.216 38.8287H144.46L145.139 41.2555H139.931L132.01 12.9426H137.302L140.255 23.4993H141.011C141.183 23.0139 141.461 22.5555 141.844 22.1241C142.256 21.6926 142.844 21.3421 143.608 21.0725C144.393 20.7758 145.416 20.6275 146.676 20.6275C148.356 20.6275 150.023 21.032 151.677 21.8409C153.324 22.6229 154.796 23.7824 156.094 25.3194C157.392 26.8564 158.347 28.7169 158.958 30.9011L159.139 31.5482C159.75 33.7323 159.837 35.5929 159.399 37.1299C158.961 38.6669 158.141 39.8398 156.939 40.6488C155.73 41.4307 154.285 41.8217 152.605 41.8217ZM149.765 37.3726C151.389 37.3726 152.607 36.8737 153.42 35.876C154.225 34.8514 154.356 33.3683 153.813 31.4269L153.7 31.0224C153.157 29.0809 152.2 27.6114 150.829 26.6137C149.478 25.589 147.977 25.0767 146.325 25.0767C144.701 25.0767 143.486 25.589 142.681 26.6137C141.868 27.6114 141.733 29.0809 142.276 31.0224L142.389 31.4269C142.932 33.3683 143.893 34.8514 145.272 35.876C146.643 36.8737 148.141 37.3726 149.765 37.3726Z" fill="#2A2A7D"/>
<path d="M172.643 41.579C171.019 41.579 169.493 41.2285 168.064 40.5274C166.657 39.7994 165.44 38.8017 164.413 37.5344C163.386 36.267 162.643 34.8109 162.183 33.1661L158.833 21.1938H164.125L167.362 32.7616C167.784 34.2716 168.479 35.4041 169.446 36.1592C170.441 36.9142 171.653 37.2917 173.081 37.2917C174.705 37.2917 175.822 36.7793 176.431 35.7547C177.033 34.7031 177.074 33.247 176.553 31.3864L173.701 21.1938H178.993L184.606 41.2555H179.398L178.663 38.6264H177.907C177.759 39.3005 177.314 39.9612 176.571 40.6083C175.828 41.2555 174.519 41.579 172.643 41.579Z" fill="#2A2A7D"/>
<path d="M196.375 41.2555C195.003 41.2555 193.77 40.851 192.675 40.0421C191.602 39.2062 190.872 38.1006 190.488 36.7254L187.319 25.4003H182.111L180.934 21.1938H186.142L184.4 14.965H189.692L191.434 21.1938H197.146L198.323 25.4003H192.611L195.531 35.8356C195.757 36.6445 196.262 37.049 197.046 37.049H201.078L202.255 41.2555H196.375Z" fill="#2A2A7D"/>
<path d="M214.361 41.8217C212.289 41.8217 210.338 41.4038 208.509 40.5679C206.699 39.705 205.131 38.5051 203.805 36.9681C202.5 35.4041 201.553 33.5706 200.965 31.4673L200.829 30.982C200.24 28.8787 200.165 27.0586 200.603 25.5216C201.034 23.9577 201.916 22.7577 203.25 21.9218C204.577 21.059 206.276 20.6275 208.348 20.6275C210.392 20.6275 212.294 21.0725 214.055 21.9623C215.809 22.8252 217.324 24.0386 218.602 25.6025C219.872 27.1395 220.793 28.9326 221.367 30.982L221.853 32.7212H206.691C207.132 34.0964 207.977 35.2154 209.227 36.0783C210.476 36.9411 211.829 37.3726 213.285 37.3726C214.769 37.3726 215.774 37.0625 216.3 36.4423C216.827 35.8221 217.166 35.1345 217.319 34.3795L222.256 36.5636C222.06 37.2647 221.701 38.0332 221.179 38.8691C220.678 39.678 219.894 40.3791 218.828 40.9723C217.754 41.5386 216.265 41.8217 214.361 41.8217ZM205.67 28.9192H215.414C214.977 27.7597 214.227 26.8294 213.163 26.1283C212.127 25.4272 210.923 25.0767 209.551 25.0767C208.123 25.0767 207.087 25.4272 206.443 26.1283C205.799 26.8294 205.541 27.7597 205.67 28.9192Z" fill="#2A2A7D"/>
<path d="M77.3398 41.8216C74.6238 41.8216 72.2393 41.2553 70.1865 40.1228C68.1336 38.9903 66.631 37.3724 65.6786 35.2692L70.2111 34.0558C70.6711 34.9996 71.2006 35.7411 71.7995 36.2804C72.4264 36.8197 73.1097 37.2107 73.8496 37.4533C74.61 37.669 75.3962 37.7769 76.2082 37.7769C77.4402 37.7769 78.2936 37.5747 78.7684 37.1702C79.2357 36.7388 79.3826 36.213 79.2091 35.5928C79.0356 34.9726 78.6236 34.5007 77.9731 34.1771C77.315 33.8266 76.3398 33.5435 75.0474 33.3277L73.8149 33.1255C72.2834 32.8559 70.8516 32.4918 69.5193 32.0334C68.1795 31.5481 67.0287 30.8874 66.0668 30.0515C65.105 29.2156 64.4392 28.1371 64.0696 26.8158C63.5113 24.8204 63.8411 23.2969 65.0589 22.2453C66.2691 21.1667 68.1063 20.6274 70.5703 20.6274C72.8943 20.6274 74.9658 21.1263 76.785 22.1239C78.6041 23.1216 79.978 24.4294 80.9066 26.0473L76.4 27.5034C75.8893 26.4787 75.2236 25.7507 74.4029 25.3193C73.6102 24.8878 72.7098 24.6721 71.7018 24.6721C70.6938 24.6721 69.9729 24.8474 69.5389 25.1979C69.0975 25.5215 68.9597 25.9799 69.1257 26.5731C69.3067 27.2203 69.7225 27.7056 70.3731 28.0292C71.016 28.3258 71.8362 28.555 72.8334 28.7168L74.066 28.919C75.7094 29.1887 77.2253 29.5527 78.6135 30.0111C80.0222 30.4425 81.2075 31.0762 82.1694 31.9121C83.1517 32.721 83.839 33.8266 84.2313 35.2288C84.8197 37.332 84.4781 38.9634 83.2065 40.1228C81.9553 41.2553 79.9998 41.8216 77.3398 41.8216Z" fill="#2A2A7D"/>
<path d="M96.0246 41.2553C94.6526 41.2553 93.4194 40.8509 92.3251 40.0419C91.2512 39.206 90.5219 38.1005 90.1372 36.7253L86.9688 25.4001H81.7608L80.5839 21.1937H85.7919L84.0493 14.9648H89.3413L91.0839 21.1937H96.7959L97.9728 25.4001H92.2608L95.1803 35.8355C95.4066 36.6444 95.9117 37.0489 96.6957 37.0489H100.728L101.905 41.2553H96.0246Z" fill="#2A2A7D"/>
<path d="M105.099 41.2553L99.4862 21.1937H104.694L105.328 23.4587H106.084C106.166 22.6498 106.504 22.0565 107.098 21.679C107.72 21.3015 108.508 21.1128 109.46 21.1128H111.98L113.247 25.6428H110.643C109.299 25.6428 108.291 25.9934 107.619 26.6944C106.94 27.3686 106.8 28.4202 107.2 29.8493L110.391 41.2553H105.099Z" fill="#2A2A7D"/>
</svg>
