<svg width="128" height="48" viewBox="0 0 128 48" fill="none" xmlns="http://www.w3.org/2000/svg">
<path d="M15.2203 23.14L24.2562 32.1759L36.3441 20.0879L24.2763 8.02008L20.3005 11.9958L23.2321 14.9275C26.1035 17.7989 26.1035 22.4372 23.2321 25.3086L22.8707 25.6701C22.4691 26.0717 21.8466 26.0717 21.445 25.6701L20.7422 24.9673C20.3406 24.5657 20.3406 23.9432 20.7422 23.5416L21.1037 23.1802C22.7904 21.4935 22.7904 18.7627 21.1037 17.076L17.409 13.3412L12.0678 8L0 20.0879L18.1721 38.26L22.1277 34.3043L13.0919 25.2685C10.2406 22.4172 10.2406 17.7587 13.0919 14.8873L13.4533 14.5259C13.8549 14.1243 14.4774 14.1243 14.879 14.5259L15.5818 15.2287C15.9834 15.6303 15.9834 16.2527 15.5818 16.6543L15.2203 17.0157C13.5337 18.7225 13.5337 21.4533 15.2203 23.14Z" fill="#276EF1"/>
<path d="M43.0611 8.20508V12.3974C43.5552 11.784 44.4529 11.0498 45.5458 11.0498C47.2823 11.0498 48.7932 11.8584 48.7932 14.9726V19.4344H46.3532V15.4516C46.3532 13.9402 46.0238 13.2955 44.9766 13.2955C44.0636 13.2955 43.3153 13.8945 43.0611 14.5231V19.4344H40.6211V8.20508H43.0611Z" fill="black"/>
<path d="M54.4647 13.1764C53.2975 13.1764 52.3693 14.1801 52.3693 15.3477C52.3693 16.5153 53.2975 17.4887 54.4647 17.4887C55.6318 17.4887 56.5305 16.5153 56.5305 15.3477C56.5305 14.1801 55.5576 13.1764 54.4647 13.1764ZM56.5153 19.4353L56.4106 18.4172C55.9165 19.1058 55.0635 19.66 53.8068 19.66C51.8161 19.66 49.9302 17.9973 49.9302 15.363C49.9302 12.7287 52.0408 11.0507 53.8068 11.0507C55.0635 11.0507 55.9621 11.6354 56.4106 12.2935L56.5153 11.2754H58.8506V19.4353H56.5153Z" fill="black"/>
<path d="M67.8737 17.8925C67.0959 18.9706 65.8231 19.66 64.4312 19.66C62.0817 19.66 60.1814 17.7286 60.1814 15.363C60.1814 12.9973 62.0817 11.0507 64.4312 11.0507C65.7783 11.0507 66.9912 11.7097 67.769 12.6982L65.9878 14.0458C65.6136 13.582 65.0301 13.2525 64.416 13.2525C63.2936 13.2525 62.4101 14.2401 62.4101 15.3638C62.4101 16.4876 63.2936 17.4305 64.416 17.4305C65.1043 17.4305 65.7327 17.0714 66.0925 16.5324L67.8737 17.8943V17.8925Z" fill="black"/>
<path d="M69.0552 19.4389V8.20953H71.4952V14.0333L73.6944 11.279H76.718L73.8448 14.7523L76.9578 19.4389H74.039L72.2282 16.7141L71.4952 17.597V19.4389H69.0552Z" fill="black"/>
<path d="M82.0459 19.4389V13.5551H80.9387V11.279H82.0459V10.74C82.0459 8.55426 83.3778 8 84.9192 8C85.9664 8 86.9841 8.65902 87.463 9.31715L85.7417 10.62C85.4723 10.2761 85.2629 10.0666 84.9487 10.0666C84.5298 10.0666 84.485 10.4104 84.485 10.7561V11.2799H86.2958V13.556H84.485V19.4398H82.0459V19.4389Z" fill="black"/>
<path d="M91.0247 17.3131C92.1167 17.3131 92.9849 16.4293 92.9849 15.3217C92.9849 14.2141 92.1167 13.3008 91.0247 13.3008C89.9327 13.3008 89.094 14.2437 89.094 15.3217C89.094 16.3998 89.9318 17.3131 91.0247 17.3131ZM91.0247 11.0542C93.3743 11.0542 95.2897 13.016 95.2897 15.3513C95.2897 17.6865 93.3743 19.6483 91.0247 19.6483C88.6751 19.6483 86.7739 17.7169 86.7739 15.3513C86.7739 12.9856 88.6742 11.0542 91.0247 11.0542Z" fill="black"/>
<path d="M98.9562 11.2789L99.0609 12.4018C99.555 11.7884 100.453 11.0542 101.546 11.0542V13.4942C100.408 13.4942 99.436 13.9141 99.0609 14.8275V19.4388H96.6218V11.2789H98.9562Z" fill="black"/>
<path d="M45.007 33.1323C46.1742 33.1323 47.1024 32.1286 47.1024 30.961C47.1024 29.7934 46.1742 28.8201 45.007 28.8201C43.8398 28.8201 42.9411 29.7934 42.9411 30.961C42.9411 32.1286 43.9141 33.1323 45.007 33.1323ZM42.9564 26.8734L43.0611 27.8915C43.5552 27.2029 44.4082 26.6487 45.6649 26.6487C47.6555 26.6487 49.5415 28.3106 49.5415 30.9458C49.5415 33.5809 47.4309 35.2581 45.6649 35.2581C44.4082 35.2581 43.5095 34.6742 43.0611 34.0152V38.7761H40.6211V26.8734H42.9564Z" fill="black"/>
<path d="M56.5153 35.0333L56.4106 33.9105C55.9165 34.5239 55.0187 35.2581 53.9258 35.2581C52.1894 35.2581 50.6785 34.4486 50.6785 31.3353V26.8735H53.1185V30.8563C53.1185 32.3677 53.4478 33.0124 54.4951 33.0124C55.4081 33.0124 56.1564 32.4134 56.4106 31.7848V26.8735H58.8506V35.0333H56.5153Z" fill="black"/>
<path d="M64.9995 33.0866C66.1667 33.0866 67.0949 32.1133 67.0949 30.9457C67.0949 29.7781 66.1667 28.7743 64.9995 28.7743C63.9066 28.7743 62.9337 29.7781 62.9337 30.9457C62.9337 32.1133 63.8314 33.0866 64.9995 33.0866ZM60.6145 35.0332V23.8039H63.0545V27.8914C63.5029 27.2333 64.4016 26.6486 65.6583 26.6486C67.4243 26.6486 69.5349 28.4009 69.5349 30.9609C69.5349 33.5209 67.6489 35.258 65.6583 35.258C64.4016 35.258 63.5477 34.7037 63.0545 34.0152L62.9498 35.0332H60.6145Z" fill="black"/>
<path d="M73.306 23.8039H70.866V35.0332H73.306V23.8039Z" fill="black"/>
<path d="M77.5101 35.0334H75.0701V26.8735H77.5101V35.0334ZM76.283 23.6554C77.016 23.6554 77.6149 24.2544 77.6149 24.9878C77.6149 25.7211 77.016 26.3049 76.283 26.3049C75.5499 26.3049 74.9663 25.7211 74.9663 24.9878C74.9663 24.2544 75.5499 23.6554 76.283 23.6554Z" fill="black"/>
<path d="M86.5344 33.4906C85.7565 34.5686 84.4837 35.2572 83.0919 35.2572C80.7423 35.2572 78.842 33.3258 78.842 30.9601C78.842 28.5945 80.7432 26.6478 83.0919 26.6478C84.439 26.6478 85.6509 27.3068 86.4296 28.2954L84.6484 29.643C84.2743 29.1792 83.6907 28.8496 83.0776 28.8496C81.9551 28.8496 81.0717 29.8373 81.0717 30.961C81.0717 32.0848 81.9551 33.0276 83.0776 33.0276C83.7659 33.0276 84.3942 32.6686 84.7541 32.1295L86.5353 33.4914L86.5344 33.4906Z" fill="black"/>
<path d="M94.3762 28.7744C93.209 28.7744 92.2808 29.7781 92.2808 30.9458C92.2808 32.1134 93.209 33.0867 94.3762 33.0867C95.5434 33.0867 96.4421 32.1134 96.4421 30.9458C96.4421 29.7781 95.4691 28.7744 94.3762 28.7744ZM98.7612 34.5838C98.7612 37.2485 96.8905 39 94.3162 39C92.9092 39 91.3974 38.3714 90.5739 37.2038L92.3551 35.8562C92.834 36.4704 93.5975 36.8143 94.3162 36.8143C95.4682 36.8143 96.2765 35.9609 96.3212 34.6886V34.0152C95.8271 34.7038 94.9741 35.2581 93.7174 35.2581C91.7268 35.2581 89.8408 33.5953 89.8408 30.961C89.8408 28.3267 91.9514 26.6487 93.7174 26.6487C94.9741 26.6487 95.8728 27.2325 96.3212 27.8915L96.4259 26.8734H98.7603V34.5838H98.7612Z" fill="black"/>
<path d="M104.223 32.9077C105.316 32.9077 106.183 32.024 106.183 30.9163C106.183 29.8087 105.316 28.8954 104.223 28.8954C103.13 28.8954 102.292 29.8383 102.292 30.9163C102.292 31.9944 103.13 32.9077 104.223 32.9077ZM104.223 26.6488C106.572 26.6488 108.488 28.6106 108.488 30.9459C108.488 33.2811 106.572 35.243 104.223 35.243C101.873 35.243 99.9722 33.3116 99.9722 30.9459C99.9722 28.5802 101.873 26.6488 104.223 26.6488Z" fill="black"/>
<path d="M113.635 32.9076C114.728 32.9076 115.595 32.0238 115.595 30.9162C115.595 29.8086 114.728 28.8953 113.635 28.8953C112.542 28.8953 111.704 29.8381 111.704 30.9162C111.704 31.9943 112.542 32.9076 113.635 32.9076ZM113.635 26.6487C115.984 26.6487 117.9 28.6105 117.9 30.9458C117.9 33.281 115.984 35.2428 113.635 35.2428C111.285 35.2428 109.384 33.3114 109.384 30.9458C109.384 28.5801 111.285 26.6487 113.635 26.6487Z" fill="black"/>
<path d="M123.332 28.7743C122.164 28.7743 121.237 29.7781 121.237 30.9457C121.237 32.1133 122.164 33.0866 123.332 33.0866C124.5 33.0866 125.397 32.1133 125.397 30.9457C125.397 29.7781 124.425 28.7743 123.332 28.7743ZM125.383 35.0332L125.278 34.0152C124.784 34.7037 123.931 35.258 122.673 35.258C120.683 35.258 118.797 33.5952 118.797 30.9609C118.797 28.3266 120.907 26.6486 122.673 26.6486C123.931 26.6486 124.829 27.2333 125.278 27.8914V23.8039H127.717V35.0332H125.383Z" fill="black"/>
</svg>
