<svg width="213" height="40" viewBox="0 0 213 40" fill="none" xmlns="http://www.w3.org/2000/svg">
<path d="M164.701 16.7693C164.237 17.7335 163.774 18.6977 163.313 19.6619C162.486 21.3904 161.654 23.1189 160.84 24.854C160.781 25.0157 160.669 25.1522 160.521 25.2405C160.374 25.3288 160.201 25.3636 160.032 25.339C159.301 25.3104 158.568 25.3015 157.837 25.339C157.38 25.3655 157.191 25.1318 157.02 24.7746C155.836 22.2862 154.647 19.7986 153.453 17.3117C153.369 17.1149 153.228 16.9476 153.049 16.8311C152.997 17.0139 152.955 17.1994 152.922 17.3867C152.654 19.6002 152.39 21.8144 152.13 24.0294C152.015 24.9929 151.886 25.9541 151.796 26.9176C151.752 27.3894 151.576 27.579 151.076 27.5525C150.035 27.5107 148.993 27.5129 147.952 27.5525C147.439 27.5702 147.27 27.4158 147.34 26.9022C147.529 25.5441 147.685 24.1816 147.854 22.819C148.124 20.6254 148.389 18.4295 148.663 16.2336C148.918 14.1832 149.182 12.1351 149.438 10.0847C149.493 9.64375 149.537 9.20281 149.574 8.77509C149.607 8.4047 149.768 8.22612 150.169 8.23715C151.047 8.25919 151.925 8.25478 152.803 8.23715C152.956 8.22152 153.109 8.25988 153.237 8.34562C153.364 8.43135 153.458 8.55907 153.501 8.70675C155.157 12.2872 156.823 15.8625 158.502 19.4326C158.629 19.6631 158.772 19.8842 158.93 20.094C159.106 19.8807 159.262 19.6519 159.397 19.4106C161.035 15.8639 162.662 12.3114 164.279 8.75305C164.335 8.58152 164.449 8.4352 164.602 8.33969C164.754 8.24417 164.935 8.20553 165.113 8.23053C165.991 8.26581 166.869 8.25258 167.748 8.23053C167.819 8.21795 167.893 8.22167 167.963 8.24143C168.033 8.26118 168.098 8.29646 168.153 8.34468C168.207 8.3929 168.251 8.45283 168.279 8.52007C168.308 8.5873 168.321 8.66013 168.318 8.7332C168.549 10.6954 168.784 12.6561 169.021 14.6153C169.28 16.7554 169.539 18.8969 169.8 21.0398C170.044 23.0344 170.293 25.0304 170.546 27.0278C170.595 27.4114 170.467 27.5481 170.074 27.5415C168.942 27.5217 167.809 27.5195 166.676 27.5415C166.272 27.5415 166.123 27.3916 166.084 27.0146C165.915 25.4515 165.73 23.8905 165.55 22.3274C165.361 20.6739 165.171 19.0211 164.977 17.369C164.955 17.175 164.901 16.9832 164.861 16.7892L164.701 16.7693Z" fill="#2F3476"/>
<path d="M90.1387 17.8738C90.1387 14.8909 90.1496 11.9057 90.1387 8.92276C90.1387 8.40245 90.2748 8.22828 90.8104 8.23489C93.225 8.26355 95.6396 8.20402 98.0542 8.26355C101.527 8.34954 104.088 9.94794 105.566 13.1139C106.507 15.1356 106.729 17.3028 106.444 19.5075C106.189 21.5314 105.509 23.3746 104.117 24.9068C103.397 25.7056 102.522 26.3478 101.545 26.7937C100.568 27.2396 99.511 27.4799 98.4383 27.4996C95.8283 27.601 93.2118 27.5304 90.5997 27.5503C90.1606 27.5503 90.1453 27.3166 90.1475 26.9903C90.1445 23.9507 90.1416 20.9119 90.1387 17.8738ZM96.5044 11.8969L96.4934 11.9895C95.9995 11.9895 95.5056 11.9895 95.0139 11.9895C94.643 11.9895 94.485 12.1372 94.4872 12.5098C94.4872 16.0814 94.4872 19.6516 94.4872 23.2202C94.4872 23.6281 94.6606 23.7758 95.0469 23.7714C95.9974 23.7582 96.95 23.7714 97.9005 23.7538C99.4371 23.7075 100.554 22.9513 101.261 21.6395C102.497 19.3488 102.495 16.9721 101.481 14.6087C101.009 13.5063 100.234 12.5804 99.0354 12.243C98.2166 12.0115 97.3429 12.0027 96.4934 11.8969H96.5044Z" fill="#2F3476"/>
<path d="M210.485 11.1914C209.475 12.0402 208.536 12.8516 207.561 13.6166C207.458 13.6982 207.087 13.5791 206.938 13.4446C206 12.5521 204.779 12.0217 203.489 11.9476C201.474 11.8418 199.92 12.6906 198.75 14.289C196.555 17.2962 197.666 21.9305 201.015 23.4892C203.037 24.4307 205.019 24.1507 206.793 22.8278C207.232 22.5037 207.5 21.9239 207.761 21.419C207.98 20.9935 207.743 20.7819 207.276 20.7863C205.886 20.7863 204.497 20.7686 203.105 20.7995C202.576 20.8127 202.398 20.6474 202.425 20.116C202.466 19.351 202.449 18.5728 202.425 17.8121C202.425 17.4395 202.543 17.2918 202.929 17.294C205.963 17.294 208.997 17.294 212.03 17.294C212.349 17.294 212.555 17.3646 212.55 17.7482C212.511 20.449 211.942 22.9778 210.118 25.0766C208.694 26.7125 206.845 27.5525 204.716 27.773C201.944 28.0618 199.34 27.5525 197.123 25.7887C194.103 23.39 192.806 20.2219 193.392 16.3945C194.004 12.3842 196.289 9.61726 200.137 8.39365C203.757 7.245 207.1 7.96594 209.947 10.5984C210.136 10.7571 210.274 10.9489 210.485 11.1914Z" fill="#757DBD"/>
<path d="M52.1431 27.5062V8.29885C52.3089 8.27333 52.4759 8.25641 52.6435 8.24814C55.2579 8.24814 57.8722 8.22609 60.4844 8.26357C63.5773 8.30767 65.8272 10.3514 66.4111 13.4027C66.9752 16.4122 65.0128 19.5539 62.46 20.3255C62.0209 20.4556 62.1087 20.6937 62.3173 20.9869C63.5758 22.7624 64.8292 24.5402 66.0775 26.3201C66.3255 26.675 66.5669 27.0344 66.8764 27.4886C66.5999 27.5128 66.4374 27.5415 66.2574 27.5415C64.9777 27.5415 63.698 27.5283 62.4204 27.5415C62.2504 27.5534 62.0805 27.5154 61.9316 27.432C61.7827 27.3486 61.6612 27.2235 61.5819 27.0719C60.3161 25.1082 59.0385 23.149 57.7493 21.1942C57.6198 20.9868 57.4228 20.831 57.1918 20.7532C56.6101 20.6253 56.4784 20.7532 56.4784 21.3573C56.4784 23.2247 56.463 25.0921 56.4784 26.9572C56.4784 27.418 56.3357 27.5591 55.8835 27.5459C54.8254 27.5172 53.7652 27.5459 52.705 27.5459C52.5294 27.5415 52.3516 27.5194 52.1431 27.5062ZM58.3529 17.294V17.272C58.8271 17.272 59.3034 17.294 59.7775 17.272C60.3866 17.2477 60.9654 16.9993 61.4038 16.574C61.8422 16.1487 62.1095 15.5763 62.1548 14.9659C62.2953 13.7136 61.4809 12.3753 60.2736 12.1791C59.1498 11.9983 57.9886 12.0358 56.8427 12.0226C56.722 12.0226 56.4959 12.3335 56.4915 12.5032C56.463 13.9473 56.4915 15.3936 56.4718 16.8377C56.4718 17.164 56.6057 17.3051 56.9283 17.3006C57.4025 17.2874 57.8788 17.294 58.3529 17.294Z" fill="#2F3476"/>
<path d="M72.0157 17.876C72.0157 14.8931 72.0266 11.9101 72.0047 8.92495C72.0047 8.40905 72.1342 8.23047 72.6742 8.23488C76.3488 8.25546 80.0226 8.25546 83.6957 8.23488C84.2225 8.23488 84.4047 8.39362 84.3828 8.92275C84.3455 9.7451 84.3521 10.5697 84.3828 11.392C84.396 11.8506 84.2225 11.9983 83.7747 11.9939C81.5643 11.9785 79.3517 11.9939 77.1412 11.9939C76.362 11.9939 76.3575 11.9939 76.3553 12.8008C76.3553 13.6827 76.3773 14.5646 76.3553 15.4465C76.3378 15.9469 76.5222 16.1277 77.0139 16.1233C78.8599 16.1079 80.706 16.1233 82.5521 16.1233C83.3774 16.1233 83.3774 16.1233 83.3774 16.9743C83.3774 17.779 83.3577 18.586 83.3774 19.3995C83.3928 19.8603 83.2194 20.0014 82.7716 19.997C80.8728 19.9793 78.9719 19.997 77.0644 19.997C76.3817 19.997 76.3466 20.0366 76.3422 20.7069C76.3422 21.4587 76.3422 22.2083 76.3422 22.9579C76.3422 23.7868 76.3531 23.7979 77.1565 23.7979H83.8471C84.633 23.7979 84.633 23.7979 84.633 24.5938C84.633 25.3897 84.6045 26.1371 84.633 26.8999C84.6593 27.4246 84.4947 27.59 83.9591 27.5855C80.6138 27.5635 77.2707 27.5855 73.9254 27.5855C73.4864 27.5855 73.0473 27.5591 72.6083 27.5855C72.132 27.623 71.9762 27.4643 71.9806 26.9726C72.0245 23.9169 72.0157 20.8965 72.0157 17.876Z" fill="#2F3476"/>
<path d="M111.992 17.9157C111.992 14.9129 112.005 11.9123 111.992 8.90947C111.992 8.37152 112.158 8.23262 112.679 8.23483C116.352 8.25541 120.025 8.25541 123.698 8.23483C124.185 8.23483 124.394 8.35829 124.37 8.8808C124.335 9.68552 124.328 10.4924 124.37 11.306C124.403 11.8902 124.163 12.0115 123.634 12.0071C121.459 11.9828 119.284 12.0071 117.108 12.0071C116.353 12.0071 116.342 12.0203 116.34 12.7743C116.34 13.6562 116.34 14.5381 116.34 15.42C116.34 16.0814 116.384 16.1277 117.067 16.1299C118.948 16.1299 120.831 16.1453 122.712 16.1299C123.213 16.1299 123.393 16.2754 123.371 16.7913C123.334 17.6313 123.336 18.4757 123.371 19.3157C123.393 19.836 123.233 20.019 122.695 20.0123C120.831 19.9837 118.963 19.9991 117.102 20.0123C116.366 20.0123 116.345 20.041 116.342 20.795C116.342 21.5821 116.366 22.3714 116.342 23.1562C116.32 23.6721 116.531 23.8177 117.016 23.8177C119.301 23.8022 121.586 23.8177 123.871 23.8177C124.638 23.8177 124.64 23.8177 124.642 24.5739C124.642 25.3786 124.622 26.1855 124.642 26.999C124.657 27.44 124.541 27.6142 124.067 27.612C120.227 27.5973 116.388 27.5973 112.551 27.612C112.112 27.612 111.996 27.4576 111.998 27.0365C111.998 23.9566 111.992 20.9361 111.992 17.9157Z" fill="#2F3476"/>
<path d="M130.117 17.9004C130.117 14.8998 130.117 11.897 130.117 8.89417C130.117 8.39811 130.248 8.23276 130.76 8.23276C134.452 8.25333 138.144 8.25333 141.836 8.23276C142.341 8.23276 142.512 8.3915 142.495 8.89417C142.462 9.71652 142.464 10.5411 142.495 11.3634C142.515 11.8507 142.332 11.9984 141.858 11.994C139.663 11.9741 137.468 11.994 135.273 11.994C134.463 11.994 134.463 11.994 134.461 12.8296C134.461 13.7114 134.481 14.5933 134.461 15.4752C134.445 15.9514 134.628 16.1366 135.097 16.1234C136.998 16.1102 138.899 16.1234 140.805 16.108C141.312 16.108 141.529 16.2292 141.503 16.7804C141.461 17.6623 141.474 18.5441 141.503 19.415C141.516 19.8559 141.349 19.986 140.927 19.9838C139.027 19.9684 137.126 19.9838 135.22 19.9838C134.507 19.9838 134.474 20.0213 134.472 20.7246C134.472 21.4742 134.472 22.226 134.472 22.9756C134.472 23.7671 134.491 23.7869 135.262 23.7869H141.95C142.763 23.7869 142.763 23.7869 142.763 24.6115C142.763 25.436 142.752 26.2584 142.763 27.083C142.763 27.4357 142.644 27.568 142.286 27.568C138.394 27.5592 134.501 27.5592 130.608 27.568C130.145 27.568 130.125 27.3299 130.125 26.9815C130.124 23.9493 130.121 20.9223 130.117 17.9004Z" fill="#2F3476"/>
<path d="M186.266 13.7995C185.754 13.7995 185.243 13.7995 184.729 13.7995C184.356 13.7995 184.152 13.7422 184.071 13.2902C183.886 12.2209 183.002 11.6587 181.729 11.705C180.607 11.7447 179.775 12.4216 179.626 13.4159C179.514 14.15 179.746 14.7387 180.504 15.0672C181.483 15.5081 182.517 15.8168 183.535 16.1585C185.048 16.6656 186.534 17.219 187.684 18.3963C188.834 19.5736 189.22 21.0618 189.001 22.6889C188.648 25.5329 186.567 27.052 184.211 27.5767C182.22 28.0176 180.249 27.9934 178.372 27.1071C176.496 26.2208 175.315 24.7348 175.08 22.5918C175.029 22.1222 175.176 21.9304 175.675 21.9304C176.715 21.9591 177.758 21.9415 178.798 21.9304C179.092 21.9304 179.347 21.9613 179.428 22.3141C179.619 23.1452 180.19 23.6259 180.952 23.8992C181.781 24.2135 182.699 24.1954 183.515 23.8485C183.854 23.7254 184.147 23.5033 184.358 23.2109C184.57 22.9185 184.689 22.5693 184.701 22.2082C184.729 21.8555 184.643 21.5031 184.457 21.2029C184.27 20.9028 183.993 20.6709 183.665 20.5415C182.861 20.1969 182.04 19.893 181.206 19.6309C179.874 19.19 178.515 18.835 177.345 17.9973C174.109 15.6845 174.586 10.5895 178.353 8.7375C180.684 7.59547 183.076 7.55138 185.427 8.68239C187.298 9.58191 188.224 11.1715 188.457 13.202C188.505 13.6297 188.347 13.8039 187.91 13.7819C187.363 13.7797 186.815 13.7995 186.266 13.7995Z" fill="#757DBD"/>
<g clip-path="url(#clip0_5889_7349)">
<path d="M31.8 3.17433e-05H3.53333C2.59624 3.17433e-05 1.69752 0.371877 1.03489 1.03377C0.372263 1.69566 0 2.59339 0 3.52944V14.353C0 14.665 0.124091 14.9642 0.344967 15.1849C0.565843 15.4055 0.865412 15.5294 1.17778 15.5294H2.51308C3.69086 15.5294 4.66989 16.4441 4.70964 17.5691C4.72121 17.8536 4.67499 18.1375 4.57378 18.4036C4.47257 18.6697 4.31847 18.9126 4.12075 19.1177C3.9235 19.3233 3.68643 19.4867 3.42398 19.5979C3.16152 19.7092 2.87916 19.7659 2.59406 19.7647H1.18073C0.868359 19.7647 0.568786 19.8887 0.34791 20.1093C0.127033 20.3299 0.00294732 20.6292 0.00294732 20.9412V31.7647C0.00294732 32.7008 0.375205 33.5985 1.03783 34.2604C1.70046 34.9223 2.59918 35.2942 3.53628 35.2942H21.8507L23.5291 37.5603C23.5497 37.5883 23.5732 37.6162 23.5968 37.6427L23.6189 37.6677C24.5022 38.653 25.6962 40 27.9619 40C28.7177 39.9961 29.4644 39.8341 30.1538 39.5246C30.8432 39.2151 31.4601 38.7649 31.9649 38.203C32.7521 37.3411 33.1673 36.204 33.1206 35.0383C33.7747 34.7757 34.3352 34.3236 34.73 33.7403C35.1249 33.1569 35.336 32.4689 35.3363 31.7647V3.52944C35.3363 3.06571 35.2448 2.60652 35.067 2.17812C34.8893 1.74972 34.6288 1.3605 34.3004 1.03273C33.9719 0.704954 33.5821 0.445038 33.1531 0.267841C32.724 0.0906449 32.2643 -0.000354704 31.8 3.17433e-05Z" fill="#303778"/>
<path d="M25.3885 36.1175C26.2336 37.0661 26.8151 37.6469 27.959 37.6469C28.3814 37.6452 28.7988 37.555 29.1843 37.3823C29.5697 37.2095 29.9146 36.958 30.1968 36.644C30.403 36.4257 30.5595 36.1656 30.6558 35.8813C30.7521 35.5971 30.7859 35.2954 30.7548 34.9969C30.4956 32.9234 28.648 22.8411 27.4805 16.5425C26.5159 18.3004 25.0961 19.7671 23.3697 20.7892C21.6432 21.8114 19.6736 22.3514 17.6667 22.3528C17.6407 22.3543 17.6147 22.3543 17.5887 22.3528C17.2162 22.3278 16.7215 22.3881 16.4757 22.8117C16.2431 23.2087 16.3034 23.7867 16.6229 24.2911L25.3885 36.1175Z" fill="#868AC3"/>
<path d="M2.35547 22.1177V31.7647C2.35547 32.0768 2.47956 32.376 2.70044 32.5966C2.92131 32.8173 3.22088 32.9412 3.53325 32.9412H20.1061L14.7133 25.6603L14.678 25.6088C13.8388 24.3397 13.7475 22.8147 14.4395 21.625C15.0799 20.525 16.2959 19.9177 17.7019 20C18.8664 19.9989 20.0189 19.7662 21.0924 19.3155C22.1659 18.8648 23.1388 18.2052 23.9544 17.375C24.7791 16.5451 25.4292 15.5587 25.8664 14.474C26.3036 13.3892 26.519 12.228 26.4999 11.0588C26.4366 6.25884 22.4086 2.35297 17.5194 2.35297H3.53325C3.22088 2.35297 2.92131 2.47691 2.70044 2.69755C2.47956 2.91818 2.35547 3.21742 2.35547 3.52944V13.1765H2.513C4.93775 13.1765 6.97972 15.1088 7.06364 17.4853C7.08755 18.086 6.98894 18.6853 6.77382 19.2468C6.5587 19.8083 6.23155 20.3202 5.81225 20.7515C5.39603 21.1854 4.89585 21.5302 4.34211 21.7651C3.78837 21.9999 3.19261 22.1199 2.59103 22.1177H2.35547Z" fill="#DFE1F2"/>
</g>
<defs>
<clipPath id="clip0_5889_7349">
<rect width="35.3333" height="40" fill="white"/>
</clipPath>
</defs>
</svg>
